# xmcd CD database file
#
# Track frame offsets:
#	182
#	16277
#	36842
#	51780
#	67935
#	84022
#	99925
#	117432
#	134897
#	151347
#	170135
#	188130
#	202660
#	220345
#	234347
#	253237
#	268027
#	285467
#
# Disc length: 4007 seconds
#
# Revision: 1
# Processed by: cddbd v1.5.1PL0 Copyright (c) Steve Scherf et al.
# Submitted via: CDex 1.51
#
DISCID=f90fa512
DTITLE=Various Artist - Gefühle - Vol.14 - Die schönsten romantischen Schlager
DYEAR=1900
DGENRE=Oldies
TTITLE0=Markus - Kleine Taschenlampe brenn'
TTITLE1=Milva - Mehr Glück als Verstand
TTITLE2=Reinhard Mey - An meine alte Jacke
TTITLE3=Vicky Leandros - Sie liebt
TTITLE4=Roger Whittaker - Wenn es dich noch gibt
TTITLE5=Nicke - Servus, mach's guat
TTITLE6=Andreas Martin - Solo tu
TTITLE7=Nino de Angelo - Jenseits von Eden
TTITLE8=Udo Jürgens - Engel am Morgen
TTITLE9=Tommy Steiner - Der Fischer von San Juan
TTITLE10=Sylvia Vrethammer - Ricardo
TTITLE11=Tony - Nie mehr allein
TTITLE12=Marianne Rosenberg - Ich sah deine Tränen
TTITLE13=Herman van Veen - Sachliche Romanzen
TTITLE14=Dalida - Buena Sera Phantasie
TTITLE15=Karel Gott - Ich bin der Adler, du der Wind
TTITLE16=Angelika Milster - Erinnerungen
TTITLE17=Relax - Weil i di mog
EXTD=
EXTT0=
EXTT1=
EXTT2=
EXTT3=
EXTT4=
EXTT5=
EXTT6=
EXTT7=
EXTT8=
EXTT9=
EXTT10=
EXTT11=
EXTT12=
EXTT13=
EXTT14=
EXTT15=
EXTT16=
EXTT17=
PLAYORDER=
